<svg xmlns="http://www.w3.org/2000/svg" width="32" height="32" viewBox="0 0 32 32">
    <g fill="none" fill-rule="evenodd">
        <path d="M0 0H32V32H0z"/>
        <g fill="#000" fill-rule="nonzero">
            <path d="M10.5.25c1.498 0 2.75 1.093 2.75 2.496 0 .238-.037.47-.106.69l-.058.163-.019.04.084.028c3.24 1.108 4.256 2.755 4.607 6.269l.027.289.044.572.068 1.078.042.535.015.156.04.369c.118.958.314 1.75.634 2.459-.494.1-.974.257-1.432.466-.351-.821-.564-1.71-.69-2.743l-.047-.423-.02-.215-.038-.486-.068-1.095c-.249-3.742-.942-4.99-4.108-5.955-.17-.047-.353-.085-.55-.113-.629-.09-.854-.859-.42-1.278l.19-.158c.198-.182.305-.411.305-.648 0-.526-.539-.996-1.25-.996s-1.25.47-1.25.996c0 .237.107.467.305.648l.19.156c.435.417.215 1.185-.412 1.28-.199.03-.383.068-.535.11-3.152.949-3.887 2.158-4.13 5.705l-.094 1.587-.026.33-.014.155-.042.394c-.149 1.282-.435 2.348-.96 3.34l-.165.295-1.392 2.278h11.966c-.234.477-.411.98-.528 1.5H1.504c-.861 0-1.412-.719-1.2-1.538l.038-.124.034-.08.05-.1 1.654-2.706c.506-.863.78-1.818.922-3.038.026-.22.045-.419.064-.652l.017-.247.07-1.228.042-.574c.297-3.628 1.24-5.346 4.426-6.489l.311-.107-.017-.04c-.064-.16-.11-.329-.138-.502l-.02-.175-.007-.178C7.75 1.343 9.002.25 10.5.25zM13.152 22.591c.293.293.293.768 0 1.06-1.465 1.465-3.84 1.465-5.304 0-.293-.292-.293-.767 0-1.06.293-.293.768-.293 1.061 0 .842.842 2.186.877 3.07.105l.112-.105c.293-.293.768-.293 1.06 0z" transform="translate(5 3)"/>
        </g>
        <path fill="#F86363" d="M25 20c-1.326 0-2.598.527-3.536 1.464C20.527 22.402 20 23.674 20 25c0 1.787.953 3.437 2.5 4.33 1.547.893 3.453.893 5 0 1.547-.893 2.5-2.543 2.5-4.33 0-1.326-.527-2.598-1.464-3.536C27.598 20.527 26.326 20 25 20z"/>
    </g>
</svg>
