<svg xmlns="http://www.w3.org/2000/svg" width="32" height="32" viewBox="0 0 32 32">
    <g fill="none" fill-rule="evenodd">
        <path d="M0 0H32V32H0z"/>
        <path fill="#D0E7FF" d="M20.306 10c2.592 0 4.696 1.908 4.694 4.992 0 1.837-1.444 3.92-2.596 4.937 0 0-3.764 2.727-6.404 6.071-.66-1.147-2.965-3.39-6.914-6.73C7.936 18.253 7 16.829 7 14.992 7 11.908 9.102 10 11.696 10c1.929 0 3.581.791 4.304 2.768.723-1.976 2.377-2.768 4.306-2.768zm-2.077-5.288c-.066 1.724-.21 2.908-.435 3.553-.224.645-.761 1.557-1.61 2.735-.447-1.358-.508-2.594-.184-3.71.324-1.115 1.067-1.974 2.229-2.578z"/>
        <path fill="#000" d="M21.449 18.226L17.598 18.436 16.37 21.756 15.451 17.711 15.019 18.936 8.619 18.226 14.689 18 15.451 13.652 16.624 18.638 16.928 17.704 23.852 18z"/>
        <path fill="#000" d="M19.5 2.377V5c0 1.315-.154 2.457-.474 3.431l-.065.186c.23-.043.467-.073.71-.092l.368-.02.267-.005c3.538 0 6.196 2.698 6.194 6.492 0 2.032-1.297 4.368-2.9 5.877l-.203.184-.113.091c-.06.043-.18.132-.351.264l-.463.361c-.162.13-.332.266-.508.411-1.008.829-2.016 1.736-2.952 2.688-.544.554-1.047 1.106-1.501 1.653l-.332.408-1.372 1.738L14.7 26.75c-.538-.935-2.784-3.122-6.608-6.356C6.472 18.96 5.5 17.126 5.5 14.992c0-3.795 2.658-6.492 6.196-6.492 1.037 0 1.989.189 2.82.563-.055-.822.057-1.636.333-2.429.41-1.173 1.137-2.113 2.151-2.778l.24-.149 2.26-1.33zM11.696 10C9.102 10 7 11.908 7 14.992c0 1.837.937 3.26 2.086 4.278l.7.595C13.308 22.877 15.379 24.922 16 26c.176-.223.357-.443.542-.66l.176-.205c2.554-2.936 5.686-5.206 5.686-5.206.11-.097.222-.203.335-.318l.107-.11c.35-.37.705-.815 1.024-1.304l.086-.134c.596-.95 1.044-2.048 1.044-3.071.002-3.084-2.102-4.992-4.694-4.992-1.41 0-2.672.423-3.532 1.422l-.074.087c-.052.065-.102.131-.151.2-.218.307-.403.659-.549 1.059C15.277 10.79 13.625 10 11.696 10zM18 5c-.832.49-1.41 1.2-1.734 2.128-.295.845-.345 1.713-.149 2.604l.066.268c.604-.488 1.044-1.08 1.322-1.773l.096-.265C17.867 7.154 18 6.166 18 5z"/>
    </g>
</svg>
