<svg xmlns="http://www.w3.org/2000/svg" width="32" height="32" viewBox="0 0 32 32">
    <g fill="none" fill-rule="evenodd">
        <path d="M0 0H32V32H0z"/>
        <path fill="#000" d="M16 5.25c5.937 0 10.75 4.813 10.75 10.75S21.937 26.75 16 26.75 5.25 21.937 5.25 16 10.063 5.25 16 5.25zm0 13.887c-2.364 0-4.614 1.48-5.973 3.925 1.611 1.365 3.696 2.188 5.973 2.188 2.276 0 4.36-.822 5.971-2.185-1.362-2.45-3.61-3.928-5.97-3.928zM16 6.75c-5.109 0-9.25 4.141-9.25 9.25 0 2.274.82 4.357 2.182 5.967 1.166-1.914 2.83-3.298 4.706-3.936-1.084-.726-1.817-1.94-1.883-3.325l-.005-.205.005-.206c.108-2.25 1.97-4.045 4.246-4.045 2.344 0 4.249 1.905 4.249 4.25 0 1.472-.75 2.77-1.888 3.533 1.879.637 3.544 2.022 4.706 3.932 1.361-1.608 2.182-3.69 2.182-5.965 0-5.109-4.141-9.25-9.25-9.25zm0 5c-1.46 0-2.658 1.144-2.745 2.584l-.005.167.005.167c.087 1.438 1.286 2.582 2.746 2.582 1.515 0 2.749-1.234 2.749-2.75s-1.233-2.75-2.75-2.75z"/>
    </g>
</svg>
